<?xml version="1.0" standalone="no"?>
<!DOCTYPE svg PUBLIC "-//W3C//DTD SVG 20010904//EN"
 "http://www.w3.org/TR/2001/REC-SVG-20010904/DTD/svg10.dtd">
<svg version="1.0" xmlns="http://www.w3.org/2000/svg"
 width="260.000000pt" height="260.000000pt" viewBox="0 0 260.000000 260.000000"
 preserveAspectRatio="xMidYMid meet">
<metadata>
Created by potrace 1.11, written by Peter Selinger 2001-2013
</metadata>
<g transform="translate(0.000000,260.000000) scale(0.100000,-0.100000)"
fill="#000000" stroke="none">
<path d="M230 2165 c0 -8 -4 -15 -10 -15 -7 0 -10 -280 -10 -821 0 -698 2
-823 14 -835 17 -16 136 -20 136 -4 0 6 7 10 15 10 13 0 15 53 15 420 0 273 3
420 10 420 6 0 10 -5 10 -10 0 -6 11 -22 25 -36 14 -14 25 -34 25 -44 0 -11 5
-20 10 -20 6 0 10 -7 10 -15 0 -8 3 -15 8 -15 8 0 32 -49 32 -67 0 -7 7 -13
15 -13 8 0 15 -7 15 -15 0 -8 5 -15 10 -15 6 0 10 -12 10 -26 0 -26 20 -54 39
-54 6 0 11 -7 11 -15 0 -8 5 -15 10 -15 6 0 10 -13 10 -30 0 -16 5 -30 10 -30
6 0 10 -5 10 -10 0 -6 11 -23 25 -38 14 -15 25 -35 25 -44 0 -10 5 -18 10 -18
6 0 10 -7 10 -15 0 -8 5 -15 10 -15 6 0 10 -6 10 -14 0 -8 7 -16 15 -20 8 -3
15 -15 15 -26 0 -11 5 -20 10 -20 6 0 10 -7 10 -15 0 -8 3 -15 8 -15 8 0 32
-49 32 -67 0 -7 7 -13 15 -13 8 0 15 -7 15 -15 0 -8 5 -15 10 -15 6 0 10 -6
10 -14 0 -7 12 -25 26 -40 24 -23 34 -26 100 -26 43 0 74 4 74 10 0 6 7 10 15
10 8 0 15 7 15 15 0 8 -7 15 -15 15 -10 0 -15 10 -15 30 0 17 -4 30 -10 30 -5
0 -10 7 -10 15 0 8 -4 15 -10 15 -5 0 -10 11 -10 25 0 14 -4 25 -10 25 -5 0
-10 7 -10 15 0 8 -7 15 -15 15 -8 0 -15 6 -15 13 0 7 -9 19 -20 27 -12 8 -20
26 -20 42 0 15 -4 28 -10 28 -5 0 -10 7 -10 15 0 8 -7 15 -15 15 -8 0 -15 7
-15 15 0 8 -4 15 -10 15 -5 0 -10 11 -10 25 0 14 -4 25 -10 25 -5 0 -10 7 -10
15 0 8 -7 15 -15 15 -8 0 -15 7 -15 15 0 8 -4 15 -10 15 -5 0 -10 11 -10 25 0
14 -4 25 -10 25 -5 0 -10 7 -10 15 0 8 -4 15 -10 15 -5 0 -10 7 -10 15 0 8 -7
15 -15 15 -10 0 -15 10 -15 28 0 16 -8 34 -20 42 -11 8 -20 20 -20 27 0 7 -7
13 -15 13 -10 0 -15 10 -15 30 0 17 -4 30 -10 30 -5 0 -10 6 -10 13 0 7 -9 19
-20 27 -12 8 -20 26 -20 42 0 18 -5 28 -15 28 -10 0 -15 10 -15 30 0 17 5 30
11 30 14 0 39 25 39 39 0 6 5 11 10 11 6 0 10 7 10 15 0 8 5 15 10 15 6 0 10
7 10 15 0 8 7 15 15 15 8 0 15 7 15 15 0 8 5 15 10 15 6 0 10 11 10 25 0 14 5
25 10 25 6 0 10 7 10 15 0 8 7 15 15 15 8 0 15 7 15 15 0 8 5 15 10 15 6 0 10
6 10 13 0 7 9 19 20 27 12 8 20 26 20 42 0 18 5 28 15 28 8 0 15 7 15 15 0 8
5 15 10 15 6 0 10 5 10 11 0 14 25 39 39 39 6 0 11 7 11 15 0 8 5 15 10 15 6
0 10 13 10 28 0 16 8 34 20 42 11 8 20 20 20 27 0 7 7 13 15 13 8 0 15 7 15
15 0 8 5 15 10 15 6 0 10 7 10 15 0 8 5 15 10 15 6 0 10 25 10 55 l0 55 -80 0
c-64 0 -80 -3 -80 -15 0 -8 -4 -15 -10 -15 -5 0 -10 -5 -10 -11 0 -14 -25 -39
-39 -39 -6 0 -11 -7 -11 -15 0 -8 -4 -15 -10 -15 -5 0 -10 -7 -10 -15 0 -8 -4
-15 -10 -15 -5 0 -10 -12 -10 -26 0 -26 -20 -54 -39 -54 -6 0 -11 -7 -11 -15
0 -8 -4 -15 -10 -15 -5 0 -10 -7 -10 -15 0 -8 -4 -15 -10 -15 -5 0 -10 -11
-10 -25 0 -16 -6 -25 -15 -25 -8 0 -15 -7 -15 -15 0 -8 -4 -15 -10 -15 -5 0
-10 -7 -10 -15 0 -8 -4 -15 -10 -15 -5 0 -10 -7 -10 -15 0 -8 -4 -15 -10 -15
-5 0 -10 -11 -10 -25 0 -16 -6 -25 -15 -25 -8 0 -15 -7 -15 -15 0 -8 -4 -15
-10 -15 -5 0 -10 -7 -10 -15 0 -8 -4 -15 -10 -15 -5 0 -10 -7 -10 -15 0 -8 -7
-15 -15 -15 -9 0 -15 -9 -15 -25 0 -14 -4 -25 -10 -25 -5 0 -10 -7 -10 -15 0
-8 -4 -15 -10 -15 -5 0 -10 -7 -10 -15 0 -8 -4 -15 -10 -15 -5 0 -10 -7 -10
-15 0 -8 -7 -15 -15 -15 -9 0 -15 -9 -15 -25 0 -14 -4 -25 -10 -25 -5 0 -10
-7 -10 -15 0 -8 -4 -15 -10 -15 -6 0 -10 132 -10 375 0 327 -2 375 -15 375 -8
0 -15 7 -15 15 0 12 -14 15 -65 15 -51 0 -65 -3 -65 -15z"/>
<path d="M1370 2165 c0 -8 -4 -15 -10 -15 -7 0 -10 -280 -10 -821 0 -698 2
-823 14 -835 12 -11 61 -14 260 -14 157 0 246 4 246 10 0 6 25 10 55 10 42 0
55 3 55 15 0 10 11 15 35 15 24 0 35 5 35 15 0 9 9 15 25 15 16 0 25 6 25 15
0 8 9 15 20 15 11 0 20 7 20 15 0 8 5 15 11 15 12 0 39 25 39 36 0 4 11 17 25
30 14 13 25 27 25 31 0 5 9 15 20 23 11 8 20 20 20 27 0 7 5 13 10 13 6 0 10
14 10 30 0 20 5 30 15 30 9 0 15 9 15 25 0 14 5 25 10 25 6 0 10 14 10 30 0
17 5 30 10 30 6 0 10 25 10 55 0 30 5 55 10 55 6 0 10 40 10 100 0 82 3 100
15 100 12 0 15 17 15 95 0 78 -3 95 -15 95 -12 0 -15 16 -15 85 0 50 -4 85
-10 85 -5 0 -10 20 -10 45 0 25 -4 45 -10 45 -5 0 -10 18 -10 40 0 22 -4 40
-10 40 -5 0 -10 14 -10 30 0 17 -5 30 -11 30 -19 0 -39 28 -39 54 0 14 -4 26
-10 26 -5 0 -10 5 -10 11 0 14 -25 39 -39 39 -6 0 -11 7 -11 15 0 8 -9 15 -20
15 -11 0 -20 7 -20 15 0 8 -7 15 -15 15 -8 0 -15 7 -15 15 0 8 -9 15 -20 15
-11 0 -20 7 -20 15 0 9 -9 15 -25 15 -14 0 -25 5 -25 10 0 6 -16 10 -35 10
-24 0 -35 5 -35 15 0 11 -12 15 -45 15 -33 0 -45 4 -45 15 0 13 -36 15 -260
15 -224 0 -260 -2 -260 -15z m520 -195 c0 -5 14 -10 30 -10 18 0 33 -6 36 -15
4 -8 14 -15 23 -15 15 0 51 -32 51 -46 0 -10 28 -34 39 -34 6 0 11 -7 11 -15
0 -8 5 -15 10 -15 6 0 10 -7 10 -15 0 -8 5 -15 10 -15 6 0 10 -7 10 -15 0 -8
5 -15 10 -15 6 0 10 -11 10 -25 0 -16 6 -25 15 -25 10 0 15 -10 15 -30 0 -16
5 -30 10 -30 6 0 10 -17 10 -38 0 -21 5 -43 10 -48 7 -7 9 -88 6 -235 -4 -232
-12 -319 -27 -319 -5 0 -9 -13 -9 -30 0 -20 -5 -30 -15 -30 -10 0 -15 -10 -15
-30 0 -16 -4 -30 -10 -30 -5 0 -10 -6 -10 -13 0 -18 -24 -67 -32 -67 -5 0 -8
-7 -8 -15 0 -8 -7 -15 -15 -15 -9 0 -18 -7 -21 -15 -4 -8 -12 -15 -20 -15 -8
0 -14 -4 -14 -10 0 -5 -11 -10 -25 -10 -16 0 -25 -6 -25 -15 0 -10 -11 -15
-35 -15 -24 0 -35 -5 -35 -15 0 -13 -27 -15 -180 -15 l-180 0 0 655 0 655 180
0 c113 0 180 -4 180 -10z"/>
</g>
</svg>
